<svg
  width="726"
  height="726"
  viewBox="0 0 726 726"
  fill="none"
  xmlns="http://www.w3.org/2000/svg"
>
  <style>
    path:not(#colored) {
      fill: white;
    }
  </style>
  <path
    d="M449.398 346.082C460.425 354.486 460.425 371.081 449.398 379.485L131.406 621.852C117.597 632.377 97.7147 622.548 97.6768 605.199V225.569L195.25 152.376L449.398 346.082Z"
    fill="#FF3A79"
    id="colored"
  />
  <path
    d="M412.945 530.912C412.945 530.947 412.946 530.983 412.946 531.019V549.218L310.443 626.109H269.743C262.312 626.109 256.287 620.085 256.287 612.653C256.287 608.455 258.247 604.497 261.586 601.952L367.902 520.92L412.945 486.339V530.912Z"
  />
  <path
    d="M412.946 604.109C412.946 616.26 403.097 626.109 390.946 626.109H310.483L412.946 549.248V604.109Z"
  />
  <path
    d="M627.972 499.979L474.329 615.231C472.413 611.968 471.313 608.167 471.312 604.109V505.466L627.972 387.951V499.979Z"
  />
  <path
    d="M605.972 99.46C618.122 99.46 627.972 109.31 627.972 121.46V387.921L471.312 505.436L471.312 452.998C471.313 446.133 474.517 439.662 479.977 435.501L514.862 408.912C545.318 385.7 545.318 339.867 514.862 316.654L479.977 290.064C474.517 285.903 471.313 279.432 471.312 272.567V121.46C471.312 109.31 481.162 99.46 493.312 99.46H605.972Z"
  />
  <path
    d="M390.946 99.46C403.097 99.46 412.946 109.31 412.946 121.46V194.547C412.946 194.582 412.945 194.618 412.945 194.653V239.23L367.139 204.062L261.585 123.612C258.247 121.068 256.287 117.111 256.287 112.913C256.287 105.483 262.31 99.46 269.74 99.46H390.946Z"
  />
</svg>
