<svg width="512" height="512" viewBox="0 0 512 512" fill="none" xmlns="http://www.w3.org/2000/svg">
<path d="M325.121 335.562C340.306 335.562 352.617 347.871 352.617 363.057C352.617 378.242 340.306 390.553 325.121 390.553H186.878C179.29 390.553 172.421 387.478 167.447 382.508C161.999 377.064 155.534 371.613 147.833 371.613C140.133 371.613 133.668 377.064 128.22 382.508C123.246 387.478 116.377 390.553 108.789 390.553C93.6033 390.553 81.2935 378.242 81.2935 363.057C81.2936 347.871 93.6034 335.562 108.789 335.562C116.655 335.562 123.749 338.865 128.76 344.16C133.957 349.651 140.274 355.066 147.834 355.066C155.394 355.066 161.711 349.651 166.907 344.16C171.919 338.865 179.012 335.562 186.878 335.562H325.121ZM403.21 121.448C418.396 121.448 430.705 133.758 430.706 148.943V216.054C430.706 216.079 430.707 216.104 430.707 216.129C430.707 216.154 430.706 216.179 430.706 216.204V283.314C430.706 298.5 418.396 310.81 403.21 310.811C388.025 310.811 375.714 298.5 375.714 283.314V253.27C375.714 247.239 370.825 242.35 364.794 242.35C359.786 242.35 355.604 245.91 352.956 250.16C348.102 257.95 339.459 263.135 329.605 263.135C319.751 263.135 311.108 257.95 306.254 250.16C303.606 245.91 299.424 242.35 294.416 242.35C288.385 242.35 283.496 247.239 283.496 253.27V264.189C283.496 279.375 271.185 291.686 256 291.686C240.814 291.685 228.504 279.375 228.504 264.189V253.271C228.504 247.239 223.615 242.35 217.583 242.35C212.575 242.35 208.393 245.91 205.745 250.161C200.891 257.95 192.248 263.135 182.394 263.135C172.54 263.135 163.897 257.95 159.043 250.16C156.395 245.91 152.213 242.35 147.205 242.35C141.174 242.35 136.285 247.239 136.285 253.27V283.314C136.285 298.5 123.974 310.811 108.789 310.811C93.6033 310.81 81.2935 298.5 81.2935 283.314V148.943C81.2937 133.758 93.6035 121.448 108.789 121.448C123.974 121.448 136.284 133.758 136.285 148.943V178.989C136.285 185.02 141.174 189.909 147.205 189.909C152.213 189.909 156.395 186.349 159.043 182.098C163.897 174.309 172.54 169.124 182.394 169.124C192.248 169.124 200.891 174.308 205.745 182.098C208.393 186.349 212.575 189.909 217.583 189.909C223.615 189.909 228.504 185.02 228.504 178.988V168.069C228.504 152.884 240.814 140.573 256 140.573C271.185 140.573 283.496 152.884 283.496 168.069V178.989C283.496 185.02 288.385 189.909 294.416 189.909C299.424 189.909 303.606 186.349 306.254 182.099C311.108 174.309 319.751 169.124 329.605 169.124C339.459 169.124 348.102 174.308 352.956 182.099C355.604 186.349 359.786 189.909 364.794 189.909C370.825 189.909 375.714 185.02 375.714 178.989V148.943C375.715 133.758 388.025 121.448 403.21 121.448Z" fill="black"/>
<path d="M325.121 335.562C340.306 335.562 352.617 347.871 352.617 363.057C352.617 378.242 340.306 390.553 325.121 390.553H186.878C179.29 390.553 172.421 387.478 167.447 382.508C161.999 377.064 155.534 371.613 147.833 371.613C140.133 371.613 133.668 377.064 128.22 382.508C123.246 387.478 116.377 390.553 108.789 390.553C93.6033 390.553 81.2935 378.242 81.2935 363.057C81.2936 347.871 93.6034 335.562 108.789 335.562C116.655 335.562 123.749 338.865 128.76 344.16C133.957 349.651 140.274 355.066 147.834 355.066C155.394 355.066 161.711 349.651 166.907 344.16C171.919 338.865 179.012 335.562 186.878 335.562H325.121ZM403.21 121.448C418.396 121.448 430.705 133.758 430.706 148.943V216.054C430.706 216.079 430.707 216.104 430.707 216.129C430.707 216.154 430.706 216.179 430.706 216.204V283.314C430.706 298.5 418.396 310.81 403.21 310.811C388.025 310.811 375.714 298.5 375.714 283.314V253.27C375.714 247.239 370.825 242.35 364.794 242.35C359.786 242.35 355.604 245.91 352.956 250.16C348.102 257.95 339.459 263.135 329.605 263.135C319.751 263.135 311.108 257.95 306.254 250.16C303.606 245.91 299.424 242.35 294.416 242.35C288.385 242.35 283.496 247.239 283.496 253.27V264.189C283.496 279.375 271.185 291.686 256 291.686C240.814 291.685 228.504 279.375 228.504 264.189V253.271C228.504 247.239 223.615 242.35 217.583 242.35C212.575 242.35 208.393 245.91 205.745 250.161C200.891 257.95 192.248 263.135 182.394 263.135C172.54 263.135 163.897 257.95 159.043 250.16C156.395 245.91 152.213 242.35 147.205 242.35C141.174 242.35 136.285 247.239 136.285 253.27V283.314C136.285 298.5 123.974 310.811 108.789 310.811C93.6033 310.81 81.2935 298.5 81.2935 283.314V148.943C81.2937 133.758 93.6035 121.448 108.789 121.448C123.974 121.448 136.284 133.758 136.285 148.943V178.989C136.285 185.02 141.174 189.909 147.205 189.909C152.213 189.909 156.395 186.349 159.043 182.098C163.897 174.309 172.54 169.124 182.394 169.124C192.248 169.124 200.891 174.308 205.745 182.098C208.393 186.349 212.575 189.909 217.583 189.909C223.615 189.909 228.504 185.02 228.504 178.988V168.069C228.504 152.884 240.814 140.573 256 140.573C271.185 140.573 283.496 152.884 283.496 168.069V178.989C283.496 185.02 288.385 189.909 294.416 189.909C299.424 189.909 303.606 186.349 306.254 182.099C311.108 174.309 319.751 169.124 329.605 169.124C339.459 169.124 348.102 174.308 352.956 182.099C355.604 186.349 359.786 189.909 364.794 189.909C370.825 189.909 375.714 185.02 375.714 178.989V148.943C375.715 133.758 388.025 121.448 403.21 121.448Z" fill="black"/>
</svg>
