<svg width="512" height="512" viewBox="0 0 512 512" fill="none" xmlns="http://www.w3.org/2000/svg">
<rect width="512" height="512" rx="89" fill="white"/>
<path d="M331.662 115.26C347.736 115.26 360.767 128.291 360.767 144.365V367.635C360.767 383.709 347.736 396.739 331.662 396.739C315.588 396.739 302.557 383.709 302.557 367.635V144.365C302.557 128.291 315.588 115.26 331.662 115.26ZM105.235 146.008C121.309 146.008 134.339 159.039 134.339 175.113V336.887C134.339 352.961 121.309 365.992 105.235 365.992C89.1606 365.992 76.1294 352.961 76.1294 336.887V175.113C76.1294 159.039 89.1606 146.008 105.235 146.008ZM407.138 146.008C423.212 146.008 436.244 159.039 436.244 175.113V336.887C436.244 352.961 423.212 365.992 407.138 365.992C391.064 365.992 378.033 352.961 378.033 336.887V175.113C378.033 159.039 391.064 146.008 407.138 146.008ZM256.186 168.685C272.26 168.685 285.292 181.716 285.292 197.79V314.209C285.292 330.283 272.26 343.314 256.186 343.314C240.112 343.314 227.082 330.283 227.082 314.209V197.79C227.082 181.716 240.112 168.685 256.186 168.685ZM180.71 201.273C196.785 201.274 209.815 214.305 209.815 230.379V281.621C209.815 297.695 196.785 310.726 180.71 310.726C164.636 310.726 151.605 297.695 151.605 281.621V230.379C151.605 214.305 164.636 201.273 180.71 201.273Z" fill="black"/>
</svg>
