<svg width="361" height="282" viewBox="0 0 361 282" fill="none" xmlns="http://www.w3.org/2000/svg">
<path d="M255.532 0C271.607 0 284.638 13.0312 284.638 29.1055V252.375C284.638 268.449 271.606 281.479 255.532 281.479C239.458 281.479 226.428 268.449 226.428 252.375V29.1055C226.428 13.0313 239.458 0.000246362 255.532 0ZM29.1055 30.748C45.1796 30.7483 58.21 43.7794 58.21 59.8535V221.627C58.21 237.701 45.1796 250.732 29.1055 250.732C13.0312 250.732 0 237.701 0 221.627V59.8535C0 43.7792 13.0312 30.748 29.1055 30.748ZM331.009 30.748C347.083 30.7481 360.114 43.7792 360.114 59.8535V221.627C360.114 237.701 347.083 250.732 331.009 250.732C314.935 250.732 301.903 237.701 301.903 221.627V59.8535C301.903 43.7792 314.935 30.748 331.009 30.748ZM180.057 53.4248C196.131 53.4248 209.162 66.456 209.162 82.5303V198.949C209.162 215.023 196.131 228.055 180.057 228.055C163.982 228.055 150.952 215.023 150.952 198.949V82.5303C150.952 66.4561 163.982 53.4249 180.057 53.4248ZM104.581 86.0137C120.655 86.0138 133.686 99.0449 133.686 115.119V166.361C133.685 182.435 120.655 195.466 104.581 195.466C88.5068 195.466 75.4757 182.436 75.4756 166.361V115.119C75.4756 99.0449 88.5068 86.0137 104.581 86.0137Z" fill="black"/>
</svg>
