<svg width="531" height="527" viewBox="0 0 531 527" fill="none" xmlns="http://www.w3.org/2000/svg">
<mask id="mask0_941_830" style="mask-type:alpha" maskUnits="userSpaceOnUse" x="0" y="0" width="531" height="527">
<path d="M6.10352e-05 21.0337C0.00403391 3.65697 19.9081 -6.19782 33.7296 4.33642L351.722 246.703C362.749 255.107 362.748 271.701 351.722 280.106L33.7296 522.472C19.9199 532.997 0.0379075 523.169 6.10352e-05 505.82V21.0337ZM315.269 431.533C315.269 431.568 315.27 431.604 315.27 431.639V504.73C315.27 516.88 305.42 526.73 293.27 526.73H172.066C164.635 526.73 158.61 520.705 158.61 513.274C158.611 509.076 160.57 505.118 163.909 502.573L270.226 421.541L315.269 386.959V431.533ZM508.295 0.0805587C520.445 0.0805587 530.295 9.93029 530.295 22.0806V504.73C530.295 516.88 520.445 526.73 508.295 526.73H395.636C383.486 526.73 373.636 516.88 373.636 504.73V353.619C373.636 346.754 376.84 340.283 382.3 336.122L417.186 309.533C447.641 286.32 447.641 240.487 417.186 217.275L382.3 190.685C376.84 186.524 373.636 180.053 373.636 173.188V22.0806C373.636 9.93034 383.486 0.0806243 395.636 0.0805587H508.295ZM293.27 0.0805587C305.42 0.0805587 315.27 9.93029 315.27 22.0806V95.1665C315.27 95.2019 315.269 95.2376 315.269 95.2729V139.851L269.362 104.606L163.908 24.2329C160.57 21.6884 158.611 17.7312 158.61 13.5337C158.61 6.10389 164.634 0.0805587 172.064 0.0805587H293.27Z" fill="white"/>
</mask>
<g mask="url(#mask0_941_830)">
<rect x="-202.546" y="278.127" width="765.065" height="89.6175" transform="rotate(-36.8747 -202.546 278.127)" fill="#57FFA3"/>
<rect x="-148.77" y="349.816" width="765.065" height="89.6175" transform="rotate(-36.8747 -148.77 349.816)" fill="#57FFA3"/>
<rect x="-94.9934" y="421.506" width="765.065" height="89.6175" transform="rotate(-36.8747 -94.9934 421.506)" fill="#57FFA3"/>
<rect x="-41.2169" y="493.194" width="765.065" height="89.6175" transform="rotate(-36.8747 -41.2169 493.194)" fill="#57FFA3"/>
<rect x="12.5596" y="564.884" width="765.065" height="89.6175" transform="rotate(-36.8747 12.5596 564.884)" fill="#57FFA3"/>
<rect x="33.7488" y="661.047" width="765.065" height="89.6175" transform="rotate(-36.8747 33.7488 661.047)" fill="#57FFA3"/>
</g>
</svg>
