<svg
  width="531"
  height="527"
  viewBox="0 0 531 527"
  fill="none"
  xmlns="http://www.w3.org/2000/svg"
>
  <style>
    rect {
      fill: black;
    }
    @media (prefers-color-scheme: dark) {
      rect {
        fill: white;
      }
    }
  </style>
  <mask
    id="mask0_941_762"
    style="mask-type: alpha"
    maskUnits="userSpaceOnUse"
    x="0"
    y="0"
    width="531"
    height="527"
  >
    <path
      d="M0 21.0337C0.00414852 3.66462 19.8913 -6.18937 33.7119 4.32279L90.1182 47.315L351.722 246.703C362.749 255.107 362.748 271.701 351.722 280.106L33.7295 522.472C19.9198 532.997 0.0377235 523.169 0 505.82V21.0337ZM315.269 431.533C315.269 431.568 315.27 431.604 315.27 431.639V504.73C315.269 516.88 305.42 526.73 293.27 526.73L180.609 526.731V526.73H172.066C164.635 526.73 158.61 520.705 158.61 513.274C158.61 509.076 160.57 505.118 163.909 502.573L270.342 421.452L315.269 386.96V431.533ZM508.295 0.080598C520.445 0.080598 530.295 9.93033 530.295 22.0806V504.73C530.295 516.88 520.445 526.73 508.295 526.73H395.636C383.486 526.73 373.636 516.88 373.636 504.73V353.619C373.636 346.754 376.84 340.283 382.3 336.122L417.186 309.533C447.641 286.32 447.641 240.487 417.186 217.275L382.3 190.685C376.84 186.524 373.636 180.053 373.636 173.188V22.0806C373.636 9.93037 383.486 0.0806636 395.636 0.080598H508.295ZM293.27 0.080598C305.42 0.080598 315.27 9.93033 315.27 22.0806V95.1675C315.27 95.203 315.269 95.2385 315.269 95.274V139.851L269.462 104.683L163.908 24.2329C160.57 21.6884 158.61 17.7313 158.61 13.5337C158.61 6.10391 164.634 0.080598 172.063 0.080598H293.27Z"
      fill="white"
    />
  </mask>
  <g mask="url(#mask0_941_762)">
    <rect
      x="-202.546"
      y="278.127"
      width="765.065"
      height="537.705"
      transform="rotate(-36.8747 -202.546 278.127)"
    />
  </g>
</svg>
